<svg xmlns="http://www.w3.org/2000/svg" viewBox="0 0 50 49.17"><path d="M25.02 0C11.18 0 0 11.27 0 25.21c0 11.14 7.17 20.57 17.11 23.91 1.24.25 1.7-.54 1.7-1.21 0-.58-.04-2.59-.04-4.67-6.96 1.5-8.41-3-8.41-3-1.12-2.92-2.78-3.67-2.78-3.67-2.28-1.54.17-1.54.17-1.54 2.53.17 3.85 2.59 3.85 2.59 2.24 3.84 5.84 2.75 7.29 2.09.21-1.63.87-2.75 1.57-3.38-5.55-.58-11.39-2.75-11.39-12.44 0-2.75.99-5.01 2.57-6.76-.25-.63-1.12-3.21.25-6.68 0 0 2.11-.67 6.88 2.59 2.04-.55 4.14-.83 6.26-.83 2.11 0 4.27.29 6.25.83 4.76-3.26 6.88-2.59 6.88-2.59 1.37 3.46.5 6.05.25 6.68 1.62 1.75 2.57 4.01 2.57 6.76 0 9.68-5.84 11.81-11.43 12.44.91.79 1.7 2.29 1.7 4.67 0 3.38-.04 6.09-.04 6.93 0 .67.46 1.46 1.7 1.21 9.94-3.34 17.11-12.77 17.11-23.91C50.06 11.29 38.84.02 25.04.02Z" style="fill:#9ca3af;fill-rule:evenodd"/></svg>