<svg xmlns="http://www.w3.org/2000/svg" viewBox="0 0 50 50"><path d="M25 0C11.19 0 0 11.19 0 25s11.19 25 25 25 25-11.19 25-25S38.81 0 25 0Zm-7.72 38.34c0 .38-.11.49-.49.49-1.57-.02-3.14-.02-4.71 0-.4 0-.48-.13-.48-.5.01-2.92 0-5.83 0-8.75v-8.75c0-.41.1-.52.52-.52 1.55.02 3.11.03 4.66 0 .42 0 .51.12.51.52-.01 5.83-.01 11.66 0 17.49ZM14.41 17.7c-1.62.18-3.35-1.61-3.26-3.3.09-1.76 1.52-3.27 3.29-3.24 1.74.03 3.27 1.32 3.29 3.25.02 2.09-1.81 3.45-3.33 3.29Zm23.93 21.13c-1.59-.03-3.18-.02-4.77 0-.4 0-.48-.13-.48-.5.01-3.24 0-6.49 0-9.73 0-.79-.11-1.55-.44-2.28-.62-1.35-1.91-1.65-3.32-1.42-1.79.28-2.54 1.65-2.65 3.65-.18 3.24-.04 6.48-.07 9.72 0 .46-.13.58-.58.57-1.52-.03-3.03-.03-4.55 0-.47 0-.56-.15-.56-.58.02-2.9 0-5.8 0-8.69s.01-5.8-.01-8.69c0-.44.13-.54.55-.54 1.48.02 2.96.02 4.44 0 .37 0 .48.11.46.46-.02.55 0 1.09 0 1.64 0 .12-.06.29.11.33.15.04.21-.12.27-.22 1.02-1.54 2.48-2.42 4.28-2.61 2.07-.21 4.09.03 5.72 1.52 1 .92 1.48 2.13 1.73 3.44.27 1.4.36 2.81.36 4.22 0 3.06 0 6.12.01 9.19 0 .39-.08.54-.51.53Z" style="fill:#9ca3af;fill-rule:evenodd"/></svg>