<svg xmlns="http://www.w3.org/2000/svg" id="Layer_1" version="1.1" viewBox="0 0 50 50"><defs><style>.st0{fill:#9ca3af;fill-rule:evenodd}</style></defs><path d="M13.56 22.97v4.04c.92-.71 1.75-1.35 2.64-2.04-.9-.68-1.73-1.31-2.64-2ZM18.9 27.04c-.12-.09-.38-.11-.5-.02-1.25.93-2.48 1.89-3.8 2.91 3.04 2.31 5.99 4.55 8.95 6.79.06-.1.09-.13.09-.17 0-1.87.02-3.74 0-5.6 0-.18-.14-.41-.28-.52-1.48-1.15-2.97-2.28-4.46-3.39ZM23.41 19.4c.15-.12.23-.44.23-.68.02-1.64.01-3.29 0-4.93 0-.16-.04-.32-.07-.55-3.01 2.29-5.96 4.53-8.97 6.82 1.39 1.06 2.7 2.05 4.01 3.05 1.61-1.24 3.21-2.46 4.79-3.71ZM26.76 19.54c1.13.9 2.28 1.77 3.42 2.65q1.2.92 2.4.01c.91-.69 1.83-1.39 2.81-2.14l-8.97-6.81c-.04.16-.07.24-.07.31 0 1.78-.02 3.55.01 5.33 0 .22.21.5.4.64ZM28.93 24.95c-1.28-.99-2.48-1.92-3.69-2.84-.11-.08-.35-.1-.45-.02-1.23.92-2.44 1.87-3.73 2.86.67.51 1.3.99 1.92 1.47.66.5 1.33 1.39 1.99 1.38.69-.01 1.37-.88 2.05-1.39.62-.47 1.24-.95 1.91-1.46Z" class="st0"/><path d="M25 0C11.19 0 0 11.19 0 25s11.19 25 25 25 25-11.19 25-25S38.81 0 25 0Zm13.39 31.37c-4.1 3.1-8.19 6.21-12.28 9.32-.92.7-1.3.7-2.22 0-4.09-3.11-8.18-6.22-12.28-9.32-.54-.41-.78-.93-.78-1.67v-9.41c0-.73.23-1.26.78-1.67 4.1-3.1 8.19-6.21 12.28-9.32.92-.7 1.3-.7 2.22 0 4.09 3.11 8.18 6.22 12.28 9.32.54.41.79.93.78 1.67-.01 1.58 0 3.16 0 4.74v4.67c0 .73-.23 1.26-.78 1.67Z" class="st0"/><path d="M31.06 27.06c-1.46 1.09-2.92 2.2-4.37 3.31-.15.11-.33.32-.33.49-.02 1.93-.01 3.86-.01 5.94 3.08-2.34 6.03-4.58 9.05-6.87-1.33-1.02-2.57-1.99-3.84-2.93-.11-.08-.37-.03-.5.06ZM36.42 27v-4.02c-.91.69-1.74 1.32-2.63 2 .9.7 1.73 1.33 2.63 2.02Z" class="st0"/></svg>